HIERARCHY
ROOT Hips
{
	OFFSET 0.000000 0.000000 0.000000
	CHANNELS 6 Xposition Yposition Zposition Xrotation Yrotation Zrotation
	JOINT LeftUpLeg_virtual
	{
		OFFSET 0.000000 0.000000 0.000000
		CHANNELS 3 Xrotation Yrotation Zrotation
		JOINT LeftUpLeg
		{
			OFFSET 11.394100 -6.187798 -0.413800
			CHANNELS 3 Xrotation Yrotation Zrotation
			JOINT LeftLeg
			{
				OFFSET 0.430247 -32.302673 3.732800
				CHANNELS 3 Xrotation Yrotation Zrotation
				JOINT LeftFoot
				{
					OFFSET -0.430247 -48.264931 -6.423300
					CHANNELS 3 Xrotation Yrotation Zrotation
					JOINT LeftToeBase
					{
						OFFSET 4.230900 -16.068199 23.438400
						CHANNELS 3 Xrotation Yrotation Zrotation
						JOINT LeftToe_End
						{
							OFFSET 4.510700 0.695400 19.974600
							CHANNELS 3 Xrotation Yrotation Zrotation
							End Site
							{
								OFFSET 0 0 0
							}
						}
					}
				}
			}
		}
	}
	JOINT RightUpLeg_virtual
	{
		OFFSET 0.000000 0.000000 0.000000
		CHANNELS 3 Xrotation Yrotation Zrotation
		JOINT RightUpLeg
		{
			OFFSET -11.333700 -6.187798 -0.413800
			CHANNELS 3 Xrotation Yrotation Zrotation
			JOINT RightLeg
			{
				OFFSET -0.430392 -32.302628 3.733000
				CHANNELS 3 Xrotation Yrotation Zrotation
				JOINT RightFoot
				{
					OFFSET 0.430392 -48.264973 -6.423500
					CHANNELS 3 Xrotation Yrotation Zrotation
					JOINT RightToeBase
					{
						OFFSET -4.230900 -16.068199 23.438400
						CHANNELS 3 Xrotation Yrotation Zrotation
						JOINT RightToe_End
						{
							OFFSET -4.510700 0.695400 19.974600
							CHANNELS 3 Xrotation Yrotation Zrotation
							End Site
							{
								OFFSET 0 0 0
							}
						}
					}
				}
			}
		}
	}
	JOINT Spine_virtual
	{
		OFFSET 0.000000 0.000000 0.000000
		CHANNELS 3 Xrotation Yrotation Zrotation
		JOINT Spine
		{
			OFFSET -0.002400 12.777504 0.315300
			CHANNELS 3 Xrotation Yrotation Zrotation
			JOINT Spine1
			{
				OFFSET -0.002067 5.816869 0.032633
				CHANNELS 3 Xrotation Yrotation Zrotation
				JOINT Spine1_split
				{
					OFFSET -0.002067 5.816869 0.032633
					CHANNELS 3 Xrotation Yrotation Zrotation
					JOINT Spine2
					{
						OFFSET -0.002067 5.816869 0.032633
						CHANNELS 3 Xrotation Yrotation Zrotation
						JOINT Neck_virtual
						{
							OFFSET 0.000000 0.000000 0.000000
							CHANNELS 3 Xrotation Yrotation Zrotation
							JOINT Neck
							{
								OFFSET -0.003700 21.199493 -0.826900
								CHANNELS 3 Xrotation Yrotation Zrotation
								JOINT Head
								{
									OFFSET 0.000000 20.442200 4.834800
									CHANNELS 3 Xrotation Yrotation Zrotation
									JOINT HeadTop_End
									{
										OFFSET 0.000000 34.668396 4.968400
										CHANNELS 3 Xrotation Yrotation Zrotation
										End Site
										{
											OFFSET 0 0 0
										}
									}
								}
							}
						}
						JOINT LeftShoulder_virtual
						{
							OFFSET 0.000000 0.000000 0.000000
							CHANNELS 3 Xrotation Yrotation Zrotation
							JOINT LeftShoulder
							{
								OFFSET 3.288150 8.794197 -1.372250
								CHANNELS 3 Xrotation Yrotation Zrotation
								JOINT LeftShoulder_split
								{
									OFFSET 3.288150 8.794197 -1.372250
									CHANNELS 3 Xrotation Yrotation Zrotation
									JOINT LeftArm
									{
										OFFSET 11.953299 -2.279007 -0.146200
										CHANNELS 3 Xrotation Yrotation Zrotation
										JOINT LeftForeArm
										{
											OFFSET 18.448900 0.000000 0.000000
											CHANNELS 3 Xrotation Yrotation Zrotation
											JOINT LeftHand
											{
												OFFSET 29.527798 0.000000 0.000000
												CHANNELS 3 Xrotation Yrotation Zrotation
												End Site
												{
													OFFSET 0 0 0
												}
											}
										}
									}
								}
							}
						}
						JOINT RightShoulder_virtual
						{
							OFFSET 0.000000 0.000000 0.000000
							CHANNELS 3 Xrotation Yrotation Zrotation
							JOINT RightShoulder
							{
								OFFSET -3.249400 8.794197 -1.372250
								CHANNELS 3 Xrotation Yrotation Zrotation
								JOINT RightShoulder_split
								{
									OFFSET -3.249400 8.794197 -1.372250
									CHANNELS 3 Xrotation Yrotation Zrotation
									JOINT RightArm
									{
										OFFSET -11.953299 -2.279007 -0.146200
										CHANNELS 3 Xrotation Yrotation Zrotation
										JOINT RightForeArm
										{
											OFFSET -18.448900 0.000000 0.000000
											CHANNELS 3 Xrotation Yrotation Zrotation
											JOINT RightHand
											{
												OFFSET -29.527802 0.000000 0.000000
												CHANNELS 3 Xrotation Yrotation Zrotation
												End Site
												{
													OFFSET 0 0 0
												}
											}
										}
									}
								}
							}
						}
					}
				}
			}
		}
	}
}
MOTION
Frames: 5
Frame Time: 0.03333333
-2.345182 99.523361 -11.340321 0.000000 0.000000 0.000000 -3.470403 -67.965915 -1.435491 -17.406691 26.321000 15.193416 23.009203 -4.873423 -0.201678 -5.996056 1.048598 -8.906523 -0.131158 -0.781433 -0.672031 0.000000 0.000000 0.000000 -2.490206 -65.565896 -1.269497 -15.549231 -13.077705 -9.710028 22.695081 10.664168 -3.925261 -6.120241 -7.437828 14.607049 6.992718 -1.232053 -31.839606 0.000000 0.000000 0.000000 -10.149703 -62.747035 -7.471115 -2.778256 3.663378 3.339110 8.996526 -1.281136 2.550536 0.004247 0.040847 -0.016160 0.000000 0.000000 0.000000 7.793785 1.964162 3.052611 -3.973354 14.979938 -3.477187 -9.021727 -53.272921 -17.180965 0.000000 0.000000 0.000000 7.083574 -0.247285 2.225612 -0.367275 -1.486761 -5.741771 6.178015 -4.407939 0.471379 50.729249 -76.084257 -14.349333 -3.889617 -15.476775 -2.119023 0.000000 0.000000 0.000000 7.717788 0.274701 3.322841 -6.096480 -0.557081 9.383511 5.028165 1.018206 2.308891 11.279851 34.474854 63.151137 -6.268117 22.964442 -3.400407 0.000000 0.000000 0.000000 
-2.396070 99.520370 -11.293797 0.000000 0.000000 0.000000 -3.625403 -67.919968 -1.582829 -17.537716 25.513291 15.200676 22.878344 -4.831834 -0.208443 -5.340871 1.434472 -8.723391 -0.272415 -0.739290 -0.971366 0.000000 0.000000 0.000000 -1.937580 -65.566005 -0.946623 -15.570878 -12.915698 -9.669326 22.975078 10.678523 -3.974489 -5.928682 -7.372678 14.925253 6.594623 -1.146229 -31.854739 0.000000 0.000000 0.000000 -10.093385 -62.953457 -7.473949 -2.631808 3.598970 3.238540 8.650645 -1.235189 2.620141 0.008012 0.007224 0.023137 0.000000 0.000000 0.000000 7.774607 2.080733 3.052314 -4.104227 14.856368 -3.408899 -9.808056 -53.287691 -17.502215 0.000000 0.000000 0.000000 7.070711 -0.181291 2.294430 -0.322387 -1.688519 -5.675759 6.272052 -4.554275 0.137644 52.609751 -76.029008 -12.630989 -4.149633 -15.460152 -2.324849 0.000000 0.000000 0.000000 7.619709 0.348901 3.392998 -6.058942 -0.428327 8.998538 5.493618 1.170350 2.047632 11.161619 34.860322 63.072467 -6.075080 22.935174 -3.518858 0.000000 0.000000 0.000000 
-2.463418 99.622200 -11.152809 0.000000 0.000000 0.000000 -3.410206 -67.878181 -1.420077 -17.696755 24.591995 15.162158 22.838220 -4.791858 -0.241971 -4.652183 1.934272 -8.520566 -0.978167 -0.700994 -1.333607 0.000000 0.000000 0.000000 -1.198951 -65.615920 -0.462526 -15.352599 -12.809214 -9.471963 22.949646 10.555720 -4.075443 -5.838458 -7.435554 15.282396 6.259974 -1.140790 -31.434108 0.000000 0.000000 0.000000 -9.615496 -63.057713 -7.088759 -2.427851 3.496273 3.157276 8.224154 -1.140027 2.596805 0.027519 -0.035347 0.044951 0.000000 0.000000 0.000000 7.712084 2.252945 2.995500 -4.065101 14.815075 -3.241872 -10.373392 -53.115465 -17.265292 0.000000 0.000000 0.000000 7.070088 -0.070681 2.319847 -0.174554 -1.779812 -5.495751 5.917275 -4.334805 -0.577378 57.117133 -75.805510 -8.448059 -4.065445 -15.889504 -2.255233 0.000000 0.000000 0.000000 7.472360 0.443173 3.390452 -5.925360 -0.054334 8.458240 6.031185 1.138874 1.855978 10.965311 34.755862 63.604436 -5.421170 23.418705 -3.987623 0.000000 0.000000 0.000000 
-2.500734 99.759079 -10.942951 0.000000 0.000000 0.000000 -2.782805 -67.833518 -0.893260 -18.056131 23.819334 15.172681 23.058842 -4.769847 -0.321176 -3.976293 2.521801 -8.440290 -1.875917 -0.663785 -1.681237 0.000000 0.000000 0.000000 -0.425734 -65.727129 0.126466 -15.089788 -12.732723 -9.210390 22.705709 10.289214 -4.205676 -5.908505 -7.610682 15.643353 6.219867 -1.251310 -30.662632 0.000000 0.000000 0.000000 -8.679254 -63.155167 -6.307405 -2.171675 3.361322 3.055670 7.738930 -1.027246 2.488382 0.061578 -0.112351 0.030057 0.000000 0.000000 0.000000 7.614634 2.441912 2.899940 -3.865251 14.904921 -3.012322 -10.710366 -52.722247 -16.592713 0.000000 0.000000 0.000000 7.025957 0.066424 2.296702 0.055646 -1.685415 -5.272634 5.183272 -3.899226 -1.388518 63.145119 -75.421858 -2.824710 -3.682946 -16.429786 -1.956875 0.000000 0.000000 0.000000 7.276915 0.530100 3.325593 -5.715719 0.558834 7.856551 6.638874 0.915909 1.915349 10.694746 34.146554 64.567342 -4.391415 24.297071 -4.736663 0.000000 0.000000 0.000000 
-2.432564 99.896378 -10.724457 0.000000 0.000000 0.000000 -1.772556 -67.785680 -0.022847 -18.687005 23.196881 15.321924 23.421591 -4.838229 -0.504238 -3.230633 3.112787 -8.681604 -2.705299 -0.645005 -1.801837 0.000000 0.000000 0.000000 0.544752 -65.800253 0.953152 -14.854476 -12.651104 -8.961790 22.303860 9.921085 -4.343424 -6.161308 -7.799812 15.966288 6.310472 -1.354558 -29.788422 0.000000 0.000000 0.000000 -7.359087 -63.202636 -5.203175 -1.846312 3.184977 2.880282 7.209500 -0.915357 2.312865 0.106610 -0.216355 0.008243 0.000000 0.000000 0.000000 7.482183 2.615137 2.790741 -3.644386 15.138506 -2.709716 -11.144312 -52.007055 -15.896705 0.000000 0.000000 0.000000 6.901947 0.208181 2.222691 0.322756 -1.344776 -5.088390 4.234249 -3.613949 -2.167057 69.086537 -74.996276 2.802051 -3.178544 -17.009526 -1.558581 0.000000 0.000000 0.000000 7.025953 0.596482 3.225532 -5.450394 1.395227 7.364085 7.062908 0.683054 2.106992 10.404618 33.036150 65.686715 -3.122986 25.483356 -5.632021 0.000000 0.000000 0.000000 
